<svg version="1.1" xmlns="http://www.w3.org/2000/svg" viewBox="0 0 121.12685383081771 131.26319165494556">
    <!-- svg-source:excalidraw -->
    <rect x="0" y="0" width="121.12685383081771" height="131.26319165494556" fill="#ffffff"/>
    <g>
        <g transform="translate(110.24658549845572 44.72021552319643) rotate(0 -49.68315858304686 20.91138030427635)">
            <path d="M0.8802683323621747 -1.3673285454511641 C-2.644170112411181 -6.302162866791089, -8.728692073623337 -23.461752538879715, -22.7162174731493 -27.133646389842035 C-36.703742872675264 -30.805540240804355, -70.15680426259836 -31.33189321855704, -83.04488406479359 -23.39869165122509 C-95.93296386698883 -15.46549008389314, -100.11755296687285 4.40073608060678, -100.04469628632069 20.465563014149666 C-99.97183960576852 36.530389947692555, -94.73531969686348 64.91624603569507, -82.6077439814806 72.99026995003223 C-70.4801682660977 81.06429386436939, -39.754277629653615 73.53120565712452, -27.279241994023323 68.90970650017262 C-14.804206358393033 64.28820734322072, -11.105058275659879 49.29864228864511, -7.75753016769886 45.26127500832081 M-2.0863959293067458 4.062096434086561 C-5.9066586300234 -0.445396526207527, -12.803677185028791 -25.86806519145767, -25.34303020760417 -31.131151260882618 C-37.88238323017955 -36.39423733030756, -64.87485685313742 -36.501824462761476, -77.32251406475902 -27.51641998246312 C-89.77017127638062 -18.53101550216476, -98.69530862614512 5.877307348698377, -100.02897347733378 22.781275620907543 C-101.36263832852244 39.685243893116706, -96.63030431394775 66.72712809448441, -85.32450317189097 73.90738965079188 C-74.01870202983419 81.08765120709936, -45.30641780977448 71.05257104282578, -32.19416662499309 65.86284495875239 C-19.081915440211695 60.673118874679005, -10.396525090187788 46.37070487861832, -6.650996063202619 42.769033146351575"
                  stroke="#9dc064" stroke-width="2" fill="none"/>
        </g>
    </g>
</svg>