<svg version="1.1" xmlns="http://www.w3.org/2000/svg" viewBox="0 0 121.12685383081771 131.26319165494556">
    <!-- svg-source:excalidraw -->
    <rect x="0" y="0" width="121.12685383081771" height="131.26319165494556" fill="#ffffff"/><g><g transform="translate(110.24658549845572 44.72021552319643) rotate(0 -49.68315858304686 20.91138030427635)"><path d="M0.8802683323621747 -1.3673285454511641 C-2.644170112411181 -6.302162866791089, -8.728692073623337 -23.461752538879715, -22.7162174731493 -27.133646389842035 C-36.703742872675264 -30.805540240804355, -70.15680426259836 -31.33189321855704, -83.04488406479359 -23.39869165122509 C-95.93296386698883 -15.46549008389314, -100.11755296687285 4.40073608060678, -100.04469628632069 20.465563014149666 C-99.97183960576852 36.530389947692555, -94.73531969686348 64.91624603569507, -82.6077439814806 72.99026995003223 C-70.4801682660977 81.06429386436939, -39.754277629653615 73.53120565712452, -27.279241994023323 68.90970650017262 C-14.804206358393033 64.28820734322072, -11.105058275659879 49.29864228864511, -7.75753016769886 45.26127500832081 M-2.0863959293067458 4.062096434086561 C-5.9066586300234 -0.445396526207527, -12.803677185028791 -25.86806519145767, -25.34303020760417 -31.131151260882618 C-37.88238323017955 -36.39423733030756, -64.87485685313742 -36.501824462761476, -77.32251406475902 -27.51641998246312 C-89.77017127638062 -18.53101550216476, -98.69530862614512 5.877307348698377, -100.02897347733378 22.781275620907543 C-101.36263832852244 39.685243893116706, -96.63030431394775 66.72712809448441, -85.32450317189097 73.90738965079188 C-74.01870202983419 81.08765120709936, -45.30641780977448 71.05257104282578, -32.19416662499309 65.86284495875239 C-19.081915440211695 60.673118874679005, -10.396525090187788 46.37070487861832, -6.650996063202619 42.769033146351575" stroke="#9dc064" stroke-width="2" fill="none"/></g></g><g><g transform="translate(75.55586384897106 36.998566038660385) rotate(0 -22.453780371713037 26.26848015185655)"><path d="M0.18899082839489 0.37627744972705823 C-4.832879420602875 -0.08471123308863948, -26.82685967068302 -4.438696178916741, -32.56277061691617 -0.07364503031532177 C-38.298681563149316 4.291406118286098, -32.31287448614106 22.489287726115155, -34.22647484900399 26.566584341335577 C-36.14007521186692 30.643880956556, -48.78804898592836 24.337572081422927, -44.04437279409376 24.39013466100721 C-39.30069660225916 24.442697240591492, -7.0181950928319266 26.549347460997076, -5.764417697996396 26.881959818841267 C-4.510640303160865 27.214572176685458, -31.66657962654655 22.842750744670134, -36.521708425080575 26.38580880807235 C-41.3768372236146 29.92886687147457, -40.97811674353855 43.76790979165602, -34.89519048920056 48.14030819925456 C-28.812264234862567 52.51270660685311, -6.027821545287603 51.613129007560325, -0.024150899052620023 52.620199253663614 M-3.1529383639991284 -1.887768601924181 C-8.102670222455817 -0.7698408097617497, -27.857649263594823 -0.9364689577357459, -33.44972987389301 2.9560614405020056 C-39.0418104841912 6.8485918387397575, -34.969347524983334 17.585896437049872, -36.705422025788266 21.46741378750233 C-38.4414965265932 25.34893113795479, -48.57563012280073 25.36851411520056, -43.866176878722584 26.24516554321675 C-39.156723634644436 27.12181697123294, -10.281949279313164 26.96434515851932, -8.448702561319369 26.72732235559945 C-6.615455843325574 26.490299552679584, -28.726055863694597 20.46530737131785, -32.866696570759814 24.82302872569754 C-37.00733727782503 29.18075008007723, -38.36052516522385 48.464319953955886, -33.292546803710664 52.87365048187761 C-28.22456844219748 57.282981009799336, -7.639543834859763 51.553155736518214, -2.458826401680708 51.27901189322789" stroke="#9dc064" stroke-width="4" fill="none"/></g></g></svg>