<svg version="1.1" xmlns="http://www.w3.org/2000/svg" viewBox="0 0 181.47838002917888 26.402283681613767">
    <!-- svg-source:excalidraw -->
    <rect x="0" y="0" width="181.47838002917888" height="26.402283681613767" fill="#ffffff"/>
    <g transform="translate(10 10) rotate(0 80.73919001458944 3.2011418408068835)">
        <path d="M1.5275548547506332 0.6003936678171158 L163.08111922917467 1.8239230066537857 L160.06583421406847 5.403242496830786 L-0.7170306593179703 6.615327743870581"
              stroke="none" stroke-width="0" fill="#9dc064"/>
        <path d="M-1.4483491033315659 -1.25956691801548 C50.352712490680986 -0.5510074530436659, 103.1321828981701 -2.420387927134242, 161.93087406931025 -1.6601888090372086 M-0.1876111701130867 -0.1787925288081169 C56.233188450371756 1.6218058117747607, 114.35557956255582 1.8180126198649706, 161.478099820293 0.47403687983751297 M160.86079840808006 0.3113030148406962 C160.96861438933968 2.5610255789025027, 160.92384362844024 3.6327840202366044, 161.87298883057306 6.4893262527692555 M161.3782894502677 -0.3090684669618367 C161.72835457533762 2.683868657395939, 161.2606102935458 4.867359339004335, 161.72888531703933 6.549844539329448 M161.01330443201167 4.7381328326290495 C128.46247521666197 5.533670295026494, 91.88712512728884 6.100233424451543, 0.5581125169992447 7.051591752154196 M160.66222262112004 5.668039282841051 C122.41691654188641 4.2748506291446144, 85.179354298102 5.118075869852012, -0.27325088530778885 6.308798989338244 M-0.5872885280160565 6.709890004316715 C0.31194247700156263 4.260640092496531, 0.10651870837485874 3.8505110856579816, 0.2930677601334176 0.18782650642078247 M0.30008435872314776 6.607533955528264 C0.07295938742644417 4.533520342967348, 0.0826363773971622 3.3451961891976136, 0.06722503789936768 -0.29779376964097304"
              stroke="#9dc064" stroke-width="1" fill="none"/>
    </g>
</svg>