<svg version="1.1" xmlns="http://www.w3.org/2000/svg" viewBox="0 0 305.32474325667135 325.67377377537287">
    <!-- svg-source:excalidraw -->
    <rect x="0" y="0" width="305.32474325667135" height="325.67377377537287" fill="#ffffff"/>
    <g>
        <g transform="translate(219.8865224041574 211.1817630915889) rotate(0 -67.22415077582173 -48.34487620390246)">
            <path d="M2.269669330492616 0.8082522090524433 C1.8658717318127556 4.126310777953942, 0.821925949098386 15.948600036857918, -0.05761682949960223 21.76968989136326 C-0.9371596080975905 27.590779745868602, -1.6206763899577712 31.8952581408538, -3.007587341095314 35.734791336084484 C-4.394498292232856 39.57432453131517, -3.040116183915022 37.19890845778088, -8.379082536324859 44.80688906274736 C-13.718048888734696 52.41486966771384, -27.60789001480628 72.81748420161513, -35.041385455554334 81.38267496588337 C-42.47488089630239 89.9478657301516, -44.74371495077215 92.47311129466526, -52.98005518081318 96.1980336483568 C-61.21639541085421 99.92295600204834, -68.47663965717811 102.58683058979625, -84.45942683580051 103.73220908803259 C-100.44221401442292 104.87758758626893, -135.26309995216687 104.79943120376106, -148.87677825254758 103.07030463777483 C-162.4904565529283 101.34117807178859, -159.97164102887982 99.12145051720242, -166.14149663808476 93.35744969211518 C-172.3113522472897 87.59344886702794, -178.8176396776818 77.55678528576259, -185.8959119077772 68.48629968725145 C-192.97418413787258 59.415814088740305, -205.26885984171648 48.674913862306354, -208.61113001865706 38.934536101048344 C-211.95340019559765 29.194158339790338, -206.31073039468035 16.670618419142322, -205.94953296942077 10.044033119703409 C-205.5883355441612 3.4174478202644947, -208.13384514082642 4.334818281357562, -206.44394546709955 -0.8249756955851355 C-204.75404579337268 -5.984769672527833, -200.0061850371876 -16.413485628738925, -195.81013492705952 -20.91473074195278 C-191.61408481693144 -25.415975855166636, -187.8286737491279 -23.08554412494922, -181.26764480633102 -27.832446374868276 C-174.70661586353415 -32.57934862478733, -165.94212209478917 -42.07702642385332, -156.4439612702783 -49.39614424146712 C-146.94580044576742 -56.71526205908092, -132.52167248953552 -66.54718681147517, -124.27867985926568 -71.74715328055109 C-116.03568722899584 -76.947119749627, -110.23791005706647 -79.41330908772831, -106.98600548865925 -80.59594305592263 C-103.73410092025202 -81.77857702411696, -115.77769596274553 -73.79237323308138, -104.76725244882236 -78.84295708971703 C-93.7568089348992 -83.89354094635269, -56.23583408027125 -102.40938874189222, -40.923344405120226 -110.89944619573653 C-25.610854729969198 -119.38950364958085, -17.327570991673504 -123.72933906685147, -12.892314397916198 -129.7833018127829 C-8.457057804158893 -135.8372645587143, -10.083040431762736 -138.82384828565029, -14.311804842576384 -147.2232226713251 C-18.540569253390032 -155.6225970569999, -31.2528188436809 -172.93923665653503, -38.26490086279809 -180.17954812683166 C-45.27698288191529 -187.4198595971283, -50.44264760112622 -187.7562428405301, -56.384296957279545 -190.66509149310482 C-62.32594631343287 -193.57394014567956, -64.09121078612934 -195.99141279032654, -73.91479699971805 -197.6326400422801 C-83.73838321330676 -199.27386729423364, -106.90624630016615 -201.29709975028203, -115.32581423881183 -200.5124550048262 C-123.74538217745751 -199.72781025937036, -121.88676808637908 -199.08229758975415, -124.43220463159214 -192.92477156954516 C-126.97764117680521 -186.76724554933617, -128.261955018466 -172.8654185808781, -130.59843351009022 -163.56729888357222 C-132.93491200171442 -154.26917918626634, -136.42170645623605 -143.89790450967865, -138.4510755813373 -137.13605338570989 C-140.48044470643856 -130.37420226174112, -140.93747557894218 -136.1531155649573, -142.77464826069772 -122.99619213975966 C-144.61182094245325 -109.83926871456201, -152.76504716306147 -77.02216367162757, -149.47411167187056 -58.19451283452404 C-146.18317618067965 -39.366861997420514, -136.06675980451266 -24.406968046269498, -123.02903531355223 -10.030287117138506 C-109.99131082259179 4.346393811992485, -79.57400591866082 21.015855913981948, -71.24776472610793 28.065572740261906 C-62.92152353355505 35.11528956654186, -75.02195396253637 30.10888552032411, -73.07158815823496 32.268013840541244 C-71.12122235393355 34.42714216075838, -61.835659545949966 38.891946347844396, -59.54556990029941 41.0203426615647 C-57.25548025464886 43.148738975285, -60.68423209815455 43.36294556885146, -59.33105028433165 45.03839172286307 C-57.97786847050875 46.71383787687468, -53.56833486784669 49.97981639732098, -51.426479017362 51.07301958563435 C-49.28462316687731 52.166222773947716, -57.14518492317059 44.39246253333994, -46.47991518142353 51.597610852743266 C-35.81464543967647 58.802759172146594, -7.099386485045455 87.26359149643953, 12.565139433120384 94.30390950205432 C32.22966535128622 101.34422750766912, 61.61401351727515 94.19093684781757, 71.50724032757152 93.83951888643205 M0.05725132495164864 -1.2212932589650154 C-0.9387845465540887 1.149764398700674, -1.6197077912422846 11.126320052378773, -2.326903500258923 17.832805668215034 C-3.034099209275561 24.539291284051295, -3.3644738496346323 34.274748745726306, -4.185922929148182 39.01762043605256 C-5.007372008661732 43.760492126378814, -1.6624617165657707 39.15770187348127, -7.255597977340221 46.290035810172554 C-12.848734238114671 53.422369746863836, -30.50425407432903 73.68130031238007, -37.744740493794886 81.81162405620026 C-44.985226913260746 89.94194780002044, -42.96956554965875 91.79885243915848, -50.69851649413536 95.0719782730937 C-58.42746743861197 98.34510410702893, -67.35918715818086 100.25640968610858, -84.11844616065453 101.45037905981158 C-100.8777051631282 102.64434843351458, -138.13054185996512 104.16443320774373, -151.25407050897738 102.23579451531172 C-164.37759915798964 100.30715582287972, -157.53324011508 95.70529388080041, -162.859618054728 89.87854690521955 C-168.18599599437601 84.05179992963869, -175.68796877248414 76.59438341534796, -183.21233814686536 67.2753126618266 C-190.7367075212466 57.95624190830524, -203.87621329224822 43.70316991034495, -208.00583430101534 33.96412238409137 C-212.13545530978246 24.22507485783779, -208.32303552332922 14.84975340919371, -207.9900641994681 8.84102750430512 C-207.65709287560696 2.8323015994165317, -207.66874037024053 2.953865899741725, -206.00800635784864 -2.088233045240168 C-204.34727234545676 -7.130331990222061, -202.46526468194213 -16.833684241274916, -198.02566012511681 -21.411566165586237 C-193.5860555682915 -25.989448089897557, -186.59589947405846 -25.438512248231216, -179.3703790168967 -29.55552459110809 C-172.14485855973493 -33.67253693398496, -163.42640103999182 -39.19932363328008, -154.67253738214632 -46.113640222847465 C-145.91867372430082 -53.02795681241485, -134.31693539536667 -65.30958085301837, -126.84719706982374 -71.04142412851239 C-119.37745874428082 -76.7732674040064, -112.93402272247631 -79.33444775293256, -109.85410742888878 -80.50469987581158 C-106.77419213530125 -81.6749519986906, -120.20887070361135 -72.44162290073085, -108.36770530829857 -78.06293686578655 C-96.52653991298578 -83.68425083084226, -54.53987452106409 -105.278839586344, -38.807115057012055 -114.2325836661458 C-23.074355592960018 -123.1863277459476, -18.002616857124803 -126.97497693303558, -13.97114852398634 -131.78540134459735 C-9.939680190847877 -136.59582575615912, -10.775145671864351 -135.942559897403, -14.618305058181285 -143.0951301355164 C-18.46146444449822 -150.2477003736298, -29.354363092018446 -166.60831482493217, -37.03010484188795 -174.70082277327776 C-44.70584659175745 -182.79333072162336, -53.92824763321239 -188.0620583388871, -60.672755557398304 -191.6501778255899 C-67.41726348158421 -195.2382973122927, -67.52446531107059 -194.64725289586508, -77.49715238700341 -196.22953969349456 C-87.46983946293624 -197.81182649112404, -113.12398075232933 -201.6901734524634, -120.50887801299523 -201.14389861136675 C-127.89377527366112 -200.5976237702701, -119.3874460837248 -198.76324079861251, -121.80653595099876 -192.9518906469147 C-124.22562581827273 -187.1405404952169, -132.29825648754866 -176.13363266868723, -135.02341721663902 -166.27579770117998 C-137.74857794572938 -156.41796273367274, -136.17060575720373 -140.66939485261855, -138.157500325541 -133.80488084187127 C-140.14439489387829 -126.940366831124, -145.14781963053673 -136.97749675144757, -146.94478462666274 -125.08871363669634 C-148.74174962278875 -113.19993052194512, -152.6826335676185 -81.1821647106607, -148.93929030229708 -62.472182153363946 C-145.19594703697567 -43.76219959606719, -136.86358163962822 -28.96710424241094, -124.48472503473423 -12.828818292915821 C-112.10586842984023 3.3094676565792955, -83.80166319552465 26.571444418927182, -74.66615067293307 34.35753354360675 C-65.53063815034149 42.14362266828631, -71.44923175093206 33.19609520564477, -69.6716498991847 33.88771645516157 C-67.89406804743734 34.57933770467838, -65.80360609925475 36.17053843892296, -64.00065956244896 38.50726104070758 C-62.19771302564317 40.843983642492205, -61.60540364500615 46.317874162164166, -58.853970678349945 47.90805206586933 C-56.10253771169374 49.49822996957449, -49.97020707047653 46.486723252104476, -47.49206176251173 48.04832846293854 C-45.01391645454693 49.60993367377261, -53.81773100240388 50.534005196591295, -43.98509883056114 57.27768333087373 C-34.1524666587184 64.02136146515616, -8.400155345301135 82.40993809458291, 11.503731268544689 88.51039726863313 C31.40761788239051 94.61085644268334, 65.39065249631773 93.15776087837088, 75.43822085251381 93.880438375175"
                  stroke="#9dc064" stroke-width="4" fill="none"/>
        </g>
    </g>
</svg>